
<svg width="1437px" height="238px" viewBox="0 0 1437 238" version="1.1" xmlns="http://www.w3.org/2000/svg" xmlns:xlink="http://www.w3.org/1999/xlink">
    <!-- Generator: Sketch 44.1 (41455) - http://www.bohemiancoding.com/sketch -->
    <desc>Created with Sketch.</desc>
    <defs></defs>
    <g id="Page-1" stroke="none" stroke-width="1" fill="none" fill-rule="evenodd" opacity="0.208956069">
        <g id="page-intro-+-audio" transform="translate(0.000000, -508.000000)" fill="#ED6500">
            <g id="PAGE-transition" transform="translate(-19.000000, 0.000000)">
                <g id="big-sound-type" transform="translate(0.000000, 508.000000)">
                    <g id="sound-type">
                        <g id="Group">
                            <rect id="Rectangle" x="173.701567" y="52.5745683" width="9.08243486" height="184.010989"></rect>
                            <rect id="Rectangle" x="157.807306" y="210.298273" width="9.08243486" height="26.2872841"></rect>
                            <rect id="Rectangle" x="141.913045" y="26.2872841" width="9.08243486" height="210.298273"></rect>
                            <polygon id="Rectangle" points="126.018784 144.580063 135.101219 144.580063 135.101219 169.109363 135.101219 236.585557 126.018784 236.585557"></polygon>
                            <rect id="Rectangle" x="110.124523" y="26.2872841" width="9.08243486" height="210.298273"></rect>
                            <rect id="Rectangle" x="94.2302616" y="78.8618524" width="9.08243486" height="157.723705"></rect>
                            <rect id="Rectangle" x="79.471305" y="105.149137" width="9.08243486" height="131.436421"></rect>
                            <rect id="Rectangle" x="63.577044" y="184.010989" width="9.08243486" height="53.8889325"></rect>
                            <rect id="Rectangle" x="47.682783" y="0" width="9.08243486" height="236.585557"></rect>
                            <rect id="Rectangle" x="31.788522" y="92.0054945" width="9.08243486" height="144.580063"></rect>
                            <rect id="Rectangle" x="15.894261" y="131.436421" width="9.08243486" height="105.149137"></rect>
                        </g>
                        <g id="Group" transform="translate(189.595828, 0.000000)">
                            <rect id="Rectangle" x="173.701567" y="52.5745683" width="9.08243486" height="184.010989"></rect>
                            <rect id="Rectangle" x="157.807306" y="210.298273" width="9.08243486" height="26.2872841"></rect>
                            <rect id="Rectangle" x="141.913045" y="26.2872841" width="9.08243486" height="210.298273"></rect>
                            <polygon id="Rectangle" points="126.018784 144.580063 135.101219 144.580063 135.101219 169.109363 135.101219 236.585557 126.018784 236.585557"></polygon>
                            <rect id="Rectangle" x="110.124523" y="26.2872841" width="9.08243486" height="210.298273"></rect>
                            <rect id="Rectangle" x="94.2302616" y="78.8618524" width="9.08243486" height="157.723705"></rect>
                            <rect id="Rectangle" x="79.471305" y="105.149137" width="9.08243486" height="131.436421"></rect>
                            <rect id="Rectangle" x="63.577044" y="184.010989" width="9.08243486" height="53.8889325"></rect>
                            <rect id="Rectangle" x="47.682783" y="0" width="9.08243486" height="236.585557"></rect>
                            <rect id="Rectangle" x="31.788522" y="92.0054945" width="9.08243486" height="144.580063"></rect>
                            <rect id="Rectangle" x="15.894261" y="131.436421" width="9.08243486" height="105.149137"></rect>
                            <rect id="Rectangle" x="0" y="157.723705" width="9.08243486" height="78.8618524"></rect>
                        </g>
                        <g id="Group" transform="translate(379.191655, 0.000000)">
                            <rect id="Rectangle" x="173.701567" y="52.5745683" width="9.08243486" height="184.010989"></rect>
                            <rect id="Rectangle" x="157.807306" y="210.298273" width="9.08243486" height="26.2872841"></rect>
                            <rect id="Rectangle" x="141.913045" y="26.2872841" width="9.08243486" height="210.298273"></rect>
                            <polygon id="Rectangle" points="126.018784 144.580063 135.101219 144.580063 135.101219 169.109363 135.101219 236.585557 126.018784 236.585557"></polygon>
                            <rect id="Rectangle" x="110.124523" y="26.2872841" width="9.08243486" height="210.298273"></rect>
                            <rect id="Rectangle" x="94.2302616" y="78.8618524" width="9.08243486" height="157.723705"></rect>
                            <rect id="Rectangle" x="79.471305" y="105.149137" width="9.08243486" height="131.436421"></rect>
                            <rect id="Rectangle" x="63.577044" y="184.010989" width="9.08243486" height="53.8889325"></rect>
                            <rect id="Rectangle" x="47.682783" y="0" width="9.08243486" height="236.585557"></rect>
                            <rect id="Rectangle" x="31.788522" y="92.0054945" width="9.08243486" height="144.580063"></rect>
                            <rect id="Rectangle" x="15.894261" y="131.436421" width="9.08243486" height="105.149137"></rect>
                            <rect id="Rectangle" x="0" y="157.723705" width="9.08243486" height="78.8618524"></rect>
                        </g>
                        <g id="Group" transform="translate(573.644756, 0.000000)">
                            <rect id="Rectangle" x="173.701567" y="52.5745683" width="9.08243486" height="184.010989"></rect>
                            <rect id="Rectangle" x="157.807306" y="210.298273" width="9.08243486" height="26.2872841"></rect>
                            <rect id="Rectangle" x="141.913045" y="26.2872841" width="9.08243486" height="210.298273"></rect>
                            <polygon id="Rectangle" points="126.018784 144.580063 135.101219 144.580063 135.101219 169.109363 135.101219 236.585557 126.018784 236.585557"></polygon>
                            <rect id="Rectangle" x="110.124523" y="26.2872841" width="9.08243486" height="210.298273"></rect>
                            <rect id="Rectangle" x="94.2302616" y="78.8618524" width="9.08243486" height="157.723705"></rect>
                            <rect id="Rectangle" x="79.471305" y="105.149137" width="9.08243486" height="131.436421"></rect>
                            <rect id="Rectangle" x="63.577044" y="184.010989" width="9.08243486" height="53.8889325"></rect>
                            <rect id="Rectangle" x="47.682783" y="0" width="9.08243486" height="236.585557"></rect>
                            <rect id="Rectangle" x="31.788522" y="92.0054945" width="9.08243486" height="144.580063"></rect>
                            <rect id="Rectangle" x="15.894261" y="131.436421" width="9.08243486" height="105.149137"></rect>
                            <rect id="Rectangle" x="0" y="157.723705" width="9.08243486" height="78.8618524"></rect>
                        </g>
                        <g id="Group" transform="translate(763.240583, 0.000000)">
                            <rect id="Rectangle" x="173.701567" y="52.5745683" width="9.08243486" height="184.010989"></rect>
                            <rect id="Rectangle" x="157.807306" y="210.298273" width="9.08243486" height="26.2872841"></rect>
                            <rect id="Rectangle" x="141.913045" y="26.2872841" width="9.08243486" height="210.298273"></rect>
                            <polygon id="Rectangle" points="126.018784 144.580063 135.101219 144.580063 135.101219 169.109363 135.101219 236.585557 126.018784 236.585557"></polygon>
                            <rect id="Rectangle" x="110.124523" y="26.2872841" width="9.08243486" height="210.298273"></rect>
                            <rect id="Rectangle" x="94.2302616" y="78.8618524" width="9.08243486" height="157.723705"></rect>
                            <rect id="Rectangle" x="79.471305" y="105.149137" width="9.08243486" height="131.436421"></rect>
                            <rect id="Rectangle" x="63.577044" y="184.010989" width="9.08243486" height="53.8889325"></rect>
                            <rect id="Rectangle" x="47.682783" y="0" width="9.08243486" height="236.585557"></rect>
                            <rect id="Rectangle" x="31.788522" y="92.0054945" width="9.08243486" height="144.580063"></rect>
                            <rect id="Rectangle" x="15.894261" y="131.436421" width="9.08243486" height="105.149137"></rect>
                            <rect id="Rectangle" x="0" y="157.723705" width="9.08243486" height="78.8618524"></rect>
                        </g>
                        <g id="Group" transform="translate(952.836411, 0.000000)">
                            <rect id="Rectangle" x="173.701567" y="52.5745683" width="9.08243486" height="184.010989"></rect>
                            <rect id="Rectangle" x="157.807306" y="210.298273" width="9.08243486" height="26.2872841"></rect>
                            <rect id="Rectangle" x="141.913045" y="26.2872841" width="9.08243486" height="210.298273"></rect>
                            <polygon id="Rectangle" points="126.018784 144.580063 135.101219 144.580063 135.101219 169.109363 135.101219 236.585557 126.018784 236.585557"></polygon>
                            <rect id="Rectangle" x="110.124523" y="26.2872841" width="9.08243486" height="210.298273"></rect>
                            <rect id="Rectangle" x="94.2302616" y="78.8618524" width="9.08243486" height="157.723705"></rect>
                            <rect id="Rectangle" x="79.471305" y="105.149137" width="9.08243486" height="131.436421"></rect>
                            <rect id="Rectangle" x="63.577044" y="184.010989" width="9.08243486" height="53.8889325"></rect>
                            <rect id="Rectangle" x="47.682783" y="0" width="9.08243486" height="236.585557"></rect>
                            <rect id="Rectangle" x="31.788522" y="92.0054945" width="9.08243486" height="144.580063"></rect>
                            <rect id="Rectangle" x="15.894261" y="131.436421" width="9.08243486" height="105.149137"></rect>
                            <rect id="Rectangle" x="0" y="157.723705" width="9.08243486" height="78.8618524"></rect>
                        </g>
                        <g id="Group" transform="translate(1144.928462, 0.000000)">
                            <rect id="Rectangle" x="173.701567" y="52.5745683" width="9.08243486" height="184.010989"></rect>
                            <rect id="Rectangle" x="157.807306" y="210.298273" width="9.08243486" height="26.2872841"></rect>
                            <rect id="Rectangle" x="141.913045" y="26.2872841" width="9.08243486" height="210.298273"></rect>
                            <polygon id="Rectangle" points="126.018784 144.580063 135.101219 144.580063 135.101219 169.109363 135.101219 236.585557 126.018784 236.585557"></polygon>
                            <rect id="Rectangle" x="110.124523" y="26.2872841" width="9.08243486" height="210.298273"></rect>
                            <rect id="Rectangle" x="94.2302616" y="78.8618524" width="9.08243486" height="157.723705"></rect>
                            <rect id="Rectangle" x="79.471305" y="105.149137" width="9.08243486" height="131.436421"></rect>
                            <rect id="Rectangle" x="63.577044" y="184.010989" width="9.08243486" height="53.8889325"></rect>
                            <rect id="Rectangle" x="47.682783" y="0" width="9.08243486" height="236.585557"></rect>
                            <rect id="Rectangle" x="31.788522" y="92.0054945" width="9.08243486" height="144.580063"></rect>
                            <rect id="Rectangle" x="15.894261" y="131.436421" width="9.08243486" height="105.149137"></rect>
                            <rect id="Rectangle" x="0" y="157.723705" width="9.08243486" height="78.8618524"></rect>
                        </g>
                    </g>
                    <g id="sound-type" transform="translate(1336.144029, 0.000000)">
                        <g id="Group">
                            <rect id="Rectangle" x="110.124523" y="26.2872841" width="9.08243486" height="210.298273"></rect>
                            <rect id="Rectangle" x="94.2302616" y="78.8618524" width="9.08243486" height="157.723705"></rect>
                            <rect id="Rectangle" x="79.471305" y="105.149137" width="9.08243486" height="131.436421"></rect>
                            <rect id="Rectangle" x="63.577044" y="184.010989" width="9.08243486" height="53.8889325"></rect>
                            <rect id="Rectangle" x="47.682783" y="0" width="9.08243486" height="236.585557"></rect>
                            <rect id="Rectangle" x="31.788522" y="92.0054945" width="9.08243486" height="144.580063"></rect>
                            <rect id="Rectangle" x="15.894261" y="131.436421" width="9.08243486" height="105.149137"></rect>
                            <rect id="Rectangle" x="0" y="157.723705" width="9.08243486" height="78.8618524"></rect>
                        </g>
                    </g>
                </g>
            </g>
        </g>
    </g>
</svg>